
        <svg xmlns="http://www.w3.org/2000/svg" xmlns:xlink="http://www.w3.org/1999/xlink" version="1.1" width="3206.896551724138" 
        height="1740.7259103676347" viewBox="0 0 3206.896551724138 1740.7259103676347">
			<rect fill="#1b1b1b" width="3206.896551724138" height="1740.7259103676347"/>
			<g transform="scale(10.344827586206897) translate(10, 10)">
				<defs id="SvgjsDefs1450"></defs><g id="SvgjsG1451" featureKey="9id2mP-0" transform="matrix(1.4290940307935571,0,0,1.4290940307935571,72.20748181402833,-26.408223274310515)" fill="#62c1bf"><path xmlns="http://www.w3.org/2000/svg" d="M31.805,41.953c0-5.497,2.443-10.57,6.546-14.639c-0.238-0.004-0.474-0.013-0.712-0.013  c-16.615,0-30.087,9.948-30.087,22.221c0,9.36,7.837,17.36,18.926,20.634l-0.585,12.604l8.693-11.016c0,0,1.642,0,3.053,0  c7.925,0,15.129-2.267,20.502-5.965C43.185,63.725,31.805,53.826,31.805,41.953z"></path><g xmlns="http://www.w3.org/2000/svg"><path d="M76.966,82.062l-11.95-15.139h-2.081c-17.693,0-32.089-10.865-32.089-24.223c0-13.355,14.396-24.221,32.089-24.221   c17.691,0,32.085,10.866,32.085,24.221c0,9.637-7.348,18.172-18.857,22.078L76.966,82.062z M62.935,22.48   c-15.487,0-28.089,9.071-28.089,20.221c0,11.15,12.602,20.223,28.089,20.223h4.021l5.437,6.889l-0.369-7.949l1.504-0.443   C84.153,58.281,91.02,50.934,91.02,42.701C91.02,31.551,78.421,22.48,62.935,22.48z"></path></g></g><g id="SvgjsG1452" featureKey="zfl5BF-0" transform="matrix(2.7519097492960385,0,0,2.7519097492960385,-2.142727575576943,92.73663306714056)" fill="#ffffff"><path d="M6.54 20.18 c-1.92 0 -4.38 -0.54 -5.18 -0.84 l0.7 -1.88 c0.74 0.28 3.84 0.92 5.3 0.66 c0.5 -0.08 0.9 -0.54 0.98 -1.06 c0.08 -0.68 -0.42 -1.34 -1.4 -1.8 c-0.6 -0.28 -1.72 -0.76 -2.62 -1.14 c-0.52 -0.22 -0.98 -0.42 -1.26 -0.54 c-0.72 -0.32 -1.32 -0.82 -1.72 -1.4 c-0.38 -0.58 -0.58 -1.24 -0.56 -1.92 c0.02 -0.64 0.22 -1.24 0.6 -1.76 c0.38 -0.54 0.92 -0.94 1.56 -1.18 c0.86 -0.34 2.1 -0.34 3.68 -0.06 c1.2 0.24 2.28 0.58 2.74 0.74 l-0.7 1.88 c-0.36 -0.14 -1.34 -0.44 -2.42 -0.64 c-1.64 -0.32 -2.36 -0.14 -2.58 -0.06 c-0.54 0.2 -0.86 0.62 -0.88 1.14 c-0.02 0.58 0.4 1.12 1.1 1.44 c0.26 0.1 0.72 0.3 1.24 0.52 c0.9 0.4 2.04 0.88 2.68 1.18 c0.92 0.44 1.6 1 2.04 1.7 c0.42 0.68 0.58 1.42 0.48 2.18 c-0.18 1.38 -1.26 2.5 -2.6 2.74 c-0.36 0.06 -0.76 0.1 -1.18 0.1 z  M20.1 7.220000000000001 l2 0 l0 12.78 l-2 0 l0 -5.82 l-5.56 0 l0 5.82 l-2 0 l0 -12.78 l2 0 l0 4.96 l5.56 0 l0 -4.96 z M26.240000000000002 20 l-2.08 0 l3.68 -12.78 l3.02 0 l3.7 12.78 l-2.1 0 l-1.08 -3.76 l-4.36 1.02 z M29.36 9.18 l-1.7 5.88 l3.16 -0.76 z M44.099999999999994 20 c-0.08 -1.8 -1.22 -2.92 -2.86 -4.28 l-2.76 0 l0 4.28 l-2 0 l0 -12.78 l1.38 0 l0.62 0 l3.48 0 c0.56 0 1.08 0.1 1.6 0.28 c0.5 0.2 0.98 0.5 1.36 0.86 c0.86 0.8 1.34 1.9 1.34 3.1 c0 1.22 -0.48 2.32 -1.34 3.1 c-0.32 0.32 -0.7 0.56 -1.1 0.76 c0.34 0.34 0.66 0.68 0.96 1.08 c0.84 1.08 1.26 2.24 1.32 3.52 l0 0.08 l-2 0 l0 0 z M38.48 13.719999999999999 l3.48 0 c1.12 0 2.3 -0.8 2.3 -2.26 s-1.18 -2.24 -2.3 -2.24 l-3.48 0 l0 4.5 z M50.32 17.98 l5.42 0 l0 2 l-7.42 0 l0 -12.78 l6.96 0 l0 2 l-4.96 0 l0 2.96 l4.6 0 l0 2 l-4.6 0 l0 3.82 z M66.58 13.219999999999999 c0.94 0.72 1.44 1.76 1.44 2.88 c0 1.14 -0.5 2.18 -1.44 2.9 c-0.8 0.66 -1.88 1 -2.98 1 l-5.66 0 l0 -12.78 l5.02 0 c0.98 0 1.9 0.3 2.62 0.88 c0.84 0.66 1.28 1.56 1.28 2.58 c0 0.8 -0.28 1.56 -0.82 2.16 c0.18 0.12 0.38 0.24 0.54 0.38 z M62.96 9.22 l-3.02 0 l0 2.92 l3.02 0 c0.94 0 1.9 -0.54 1.9 -1.46 s-0.96 -1.46 -1.9 -1.46 z M63.6 18 c1.18 0 2.42 -0.7 2.42 -1.9 c0 -1.18 -1.24 -1.9 -2.42 -1.9 l-3.66 0 l0 3.8 l3.66 0 z M79.69999999999999 8.9 c0.92 1.14 1.4 2.72 1.4 4.7 s-0.48 3.56 -1.4 4.7 c-0.5 0.62 -1.14 1.08 -1.88 1.4 s-1.58 0.48 -2.52 0.48 s-1.78 -0.16 -2.52 -0.48 s-1.38 -0.78 -1.88 -1.4 c-0.92 -1.14 -1.4 -2.72 -1.4 -4.7 s0.48 -3.56 1.4 -4.7 c0.5 -0.62 1.14 -1.1 1.88 -1.42 s1.58 -0.48 2.52 -0.48 s1.78 0.16 2.52 0.48 s1.38 0.8 1.88 1.42 z M78.16 17.04 c0.62 -0.76 0.94 -1.96 0.94 -3.44 c0 -1.5 -0.32 -2.68 -0.94 -3.44 s-1.58 -1.16 -2.86 -1.16 c-1.26 0 -2.22 0.4 -2.84 1.16 s-0.96 1.94 -0.96 3.44 c0 1.48 0.34 2.68 0.96 3.44 s1.58 1.14 2.84 1.14 c1.28 0 2.24 -0.38 2.86 -1.14 z M92.67999999999999 8.9 c0.92 1.14 1.4 2.72 1.4 4.7 s-0.48 3.56 -1.4 4.7 c-0.5 0.62 -1.14 1.08 -1.88 1.4 s-1.58 0.48 -2.52 0.48 s-1.78 -0.16 -2.52 -0.48 s-1.38 -0.78 -1.88 -1.4 c-0.92 -1.14 -1.4 -2.72 -1.4 -4.7 s0.48 -3.56 1.4 -4.7 c0.5 -0.62 1.14 -1.1 1.88 -1.42 s1.58 -0.48 2.52 -0.48 s1.78 0.16 2.52 0.48 s1.38 0.8 1.88 1.42 z M91.14 17.04 c0.62 -0.76 0.94 -1.96 0.94 -3.44 c0 -1.5 -0.32 -2.68 -0.94 -3.44 s-1.58 -1.16 -2.86 -1.16 c-1.26 0 -2.22 0.4 -2.84 1.16 s-0.96 1.94 -0.96 3.44 c0 1.48 0.34 2.68 0.96 3.44 s1.58 1.14 2.84 1.14 c1.28 0 2.24 -0.38 2.86 -1.14 z M101.24 12.8 l4.92 7.18 l-2.42 0 l-4.04 -5.88 c-0.86 0.78 -1.52 1.58 -1.62 2.62 l0 3.26 l-2 0 l0 -12.8 l2 0 l0 5.68 c0.48 -0.44 0.98 -0.86 1.48 -1.28 c1.54 -1.26 3 -2.46 3.12 -4.4 l2.02 0 c-0.06 1.26 -0.5 2.4 -1.32 3.48 c-0.62 0.82 -1.38 1.5 -2.14 2.14 z"></path></g>
			</g>
		</svg>
	